<svg width="93" height="90" viewBox="0 0 93 90" fill="none" xmlns="http://www.w3.org/2000/svg">
<g clip-path="url(#clip0_12_1521)">
<mask id="mask0_12_1521" style="mask-type:alpha" maskUnits="userSpaceOnUse" x="0" y="0" width="93" height="90">
<path d="M46.3476 89.4812C71.9446 89.4812 92.6951 69.4502 92.6951 44.7406C92.6951 20.0311 71.9446 0 46.3476 0C20.7505 0 0 20.0311 0 44.7406C0 69.4502 20.7505 89.4812 46.3476 89.4812Z" fill="#D9D9D9"/>
</mask>
<g mask="url(#mask0_12_1521)">
<path d="M71.7559 81.6778C71.5432 81.8252 71.3001 81.9718 71.0874 82.1185C70.8442 82.2651 70.6314 82.4117 70.3883 82.5292C70.1756 82.6466 69.9932 82.7633 69.7805 82.8808C69.7501 82.9107 69.7197 82.9107 69.6893 82.9399C68.9903 83.3506 68.2608 83.7322 67.5314 84.0838C67.3187 84.2012 67.0756 84.3187 66.8628 84.407C66.8628 84.407 66.8324 84.4362 66.8021 84.4362C66.5589 84.5536 66.3158 84.6703 66.0726 84.7878C65.5863 85.0227 65.0697 85.2284 64.5834 85.4334C64.3403 85.5509 64.0667 85.6392 63.8236 85.7267C63.5805 85.815 63.307 85.9324 63.0638 86.02C62.8207 86.1082 62.5472 86.2257 62.304 86.314C62.304 86.314 62.304 86.314 62.2736 86.314C62.0305 86.4015 61.757 86.4898 61.5138 86.5773C60.9667 86.7539 60.3893 86.9297 59.8423 87.1055C59.6599 87.1646 59.4472 87.2229 59.2648 87.282C58.6874 87.4579 58.1099 87.6045 57.5324 87.7219C57.3197 87.7803 57.107 87.8102 56.8638 87.8686C56.3167 87.986 55.7393 88.1035 55.1923 88.2209C55.0707 88.2501 54.9795 88.2501 54.8579 88.2793C54.6756 88.3085 54.4628 88.3377 54.2805 88.3676C54.007 88.3968 53.7638 88.4551 53.4903 88.4843C53.3687 88.5142 53.2472 88.5142 53.1256 88.5434C52.9736 88.5726 52.7912 88.6017 52.6089 88.6017C52.1226 88.6609 51.6059 88.7192 51.1197 88.7783C50.9677 88.8075 50.7854 88.8075 50.6334 88.8367H50.603C50.3903 88.8658 50.1775 88.8658 49.9648 88.8958C49.7521 88.9249 49.5393 88.9249 49.3265 88.9249C49.205 88.9249 49.053 88.9541 48.9314 88.9541C48.6883 88.9541 48.4756 88.9833 48.2628 88.9833C47.9589 88.9833 47.6854 89.0125 47.3814 89.0125C47.0775 89.0125 46.804 89.0125 46.5001 89.0125C46.2873 89.0125 46.0746 89.0125 45.8619 89.0125C33.0363 88.8367 21.5177 83.5848 13.2814 75.2529C13.2814 75.2529 13.2814 75.2237 13.251 75.2237C12.3393 74.4316 13.1295 70.2068 16.807 67.537C21.4265 64.1631 32.4893 62.0508 32.4893 62.0508C32.4893 62.0508 36.7746 61.376 52.6697 64.5738C61.9697 66.4515 69.051 69.18 73.0021 76.5733C73.8226 78.0988 74.6432 80.4456 71.7559 81.6778Z" fill="white"/>
<path d="M52.7608 64.2511C58.5961 65.3954 64.8265 66.6275 69.6285 70.3535C71.2392 71.6151 72.303 73.4634 73.1844 75.2529C73.6099 76.1334 74.0354 77.0424 74.3697 78.0112C74.552 78.6561 74.8255 79.39 74.6736 80.1524C74.6432 80.3581 74.4608 80.6222 74.3088 80.7688C73.6099 81.4436 72.8501 81.8544 72.0903 82.3825C67.6226 85.3751 62.4863 87.487 57.1677 88.6017C45.3148 91.096 32.4892 89.1591 22.0648 83.1449C18.6001 81.1204 15.4089 78.6561 12.6736 75.7519C12.3697 75.3995 12.3697 74.813 12.3697 74.4316C12.4001 73.5514 12.6432 72.7006 12.9471 71.9084C13.6765 70.0895 14.6187 68.2705 16.2295 67.0089C17.3844 66.2461 18.6305 65.6007 19.907 65.0726C23.9187 63.4296 28.1432 62.2855 32.4892 61.816C32.8539 61.7867 32.9148 62.2855 32.5501 62.3441C28.3863 63.1656 24.253 64.3978 20.3932 66.0701C18.9952 66.7449 17.5059 67.3317 16.3814 68.3879C15.3177 69.5027 14.5579 70.8816 13.9501 72.2898C13.555 73.1407 13.2814 74.4902 13.403 75.1653C15.3177 77.3656 17.5667 79.3017 19.9981 80.9738C33.3099 89.9514 53.5206 90.5386 67.6834 83.0573C68.9599 82.3825 70.2059 81.6194 71.3912 80.8272C71.9687 80.4456 72.5765 80.1232 73.0324 79.6833C73.0628 79.6541 73.0324 79.6833 73.0324 79.7125C73.0324 79.7416 73.002 79.7708 73.002 79.7708C73.0324 79.4192 72.9108 78.9494 72.7589 78.4803C72.2118 76.7783 71.3305 74.9888 70.3883 73.4341C68.899 71.1163 66.3765 69.6494 63.8236 68.4759C62.0608 67.6837 60.207 67.0676 58.3226 66.4808C56.4383 65.8941 54.5236 65.3954 52.6088 64.9552C52.1226 64.8379 52.2746 64.1631 52.7608 64.2511Z" fill="black"/>
<path d="M69.6287 70.6175C67.3188 68.5932 59.9336 65.4247 54.4022 64.1338C51.9708 63.5764 46.2571 61.9627 41.911 61.552C39.5708 61.3173 35.2552 61.8747 32.5503 61.9627C29.9365 62.0508 21.1228 63.7817 16.8983 66.6569C15.9865 67.2729 11.9139 71.175 10.1512 81.1796C8.78357 88.8958 7.0816 98.8997 7.02081 102.303H76.2845C77.4394 82.4117 72.0296 72.73 69.6287 70.6175Z" fill="black"/>
<path d="M69.1119 71.175C67.7138 70.0308 65.9207 69.1507 64.2491 68.3879C61.6354 67.185 58.9001 66.1582 56.104 65.366C53.3079 64.6326 50.3903 63.9284 47.5942 63.2829C45.7099 62.8722 43.7952 62.5202 41.8805 62.3148C40.0266 62.1681 38.0207 62.3734 36.1364 62.4908C34.7079 62.6082 33.2187 62.6669 31.7599 62.7842C27.505 63.3417 23.1893 64.4271 19.2991 66.1875C18.5697 66.5396 17.8707 66.8916 17.2324 67.361C15.6217 68.7693 14.4668 70.7349 13.555 72.6419C12.0657 75.8102 11.2452 79.2726 10.6981 82.705C10.2422 85.4042 9.69518 88.4259 9.2697 91.1252C8.69225 94.8217 8.02358 98.5773 7.84122 102.303L7.05106 101.54H76.2844L75.4942 102.245C75.9197 94.1469 75.555 85.815 72.9108 78.0404C72.0295 75.6344 70.9657 73.0527 69.1119 71.175ZM70.1756 70.0602C71.3305 71.1163 72.0903 72.3192 72.9108 73.5807C75.2206 77.2481 76.3148 81.4145 76.9226 85.6392C77.7736 91.1544 77.7434 96.7878 77.105 102.332C77.105 102.743 76.7403 103.066 76.3148 103.036H7.08146C6.65597 103.036 6.29126 102.685 6.29126 102.274C6.32165 101.277 6.44322 100.338 6.53439 99.3696C6.86871 96.5237 7.32459 93.707 7.81084 90.8903C8.23639 88.191 8.81385 85.1693 9.2697 82.4701C9.87753 78.9202 10.7285 75.3412 12.2481 72.0551C13.2815 69.9428 14.4668 67.8598 16.3207 66.2755C17.0501 65.7474 17.8403 65.3073 18.6608 64.9259C22.7638 63.0776 27.1403 61.9921 31.5775 61.376C33.0364 61.2586 34.5256 61.1999 36.0148 61.0532C38.0207 60.9066 39.9657 60.7012 42.0324 60.8479C44.0383 61.0532 45.9834 61.4053 47.9285 61.816C50.8461 62.4615 53.6726 63.1363 56.5599 63.8991C59.4168 64.7206 62.2128 65.7474 64.9177 66.9796C66.7717 67.9184 68.5344 68.7399 70.1756 70.0602Z" fill="black"/>
<path d="M70.905 102.303C68.8687 83.6439 64.857 74.1382 64.857 74.1382C63.9148 69.1214 61.4226 65.1606 60.6325 64.8086C59.2041 64.1925 58.9609 64.3978 58.9609 64.3978C61.2707 67.4197 62.456 72.5539 62.7599 75.2237C54.0374 78.891 37.9295 76.3384 32.307 75.1653C30.453 71.9672 26.8972 65.278 23.7972 62.7255C23.5236 62.5202 23.1589 62.4908 22.855 62.6082C22.6119 62.7255 22.2776 62.931 21.9736 63.283C21.8217 63.459 21.8217 63.6938 22.0041 63.8698C22.0344 63.8991 22.0648 63.9284 22.0952 63.9578C27.2619 69.4147 30.0883 78.9494 29.3893 86.314C28.1432 99.3988 25.7726 102.274 25.7726 102.274H70.905V102.303Z" fill="white"/>
<path d="M70.3275 101.804C70.054 100.807 69.8717 99.8387 69.8108 98.8115C68.8991 90.5087 67.6226 82.0885 64.5834 74.2555L65.0089 74.4023C64.857 74.4902 64.6746 74.4316 64.5834 74.3142C64.1579 72.3486 63.5501 70.4122 62.6383 68.5932C62.0305 67.4197 61.4226 66.2168 60.4804 65.3073C60.1157 65.1313 59.6295 64.9846 59.2344 64.8673C59.1736 64.8379 59.1128 64.8379 59.0824 64.8379C59.0824 64.8379 59.0824 64.8379 59.1128 64.8379H59.1432C59.1736 64.8379 59.1432 64.8379 59.204 64.7792L59.2648 64.2218C59.5383 64.6619 60.1462 65.7474 60.3589 66.1875C61.3315 68.1531 61.9393 70.2949 62.4255 72.4072C62.6079 73.346 62.7903 74.3142 62.9119 75.2821C62.9119 75.3703 62.8815 75.4294 62.7903 75.4878C57.9883 77.4239 52.6697 77.5998 47.5334 77.5414C44.9501 77.483 42.3668 77.2773 39.8138 77.0132C37.2608 76.72 34.7079 76.3384 32.155 75.8402C31.9726 75.8102 31.851 75.6928 31.7599 75.5761C30.5138 73.4341 29.3589 71.3217 28.0824 69.2387C26.8364 67.2143 25.5295 65.1019 23.7668 63.459L23.4628 63.195C23.0373 62.9016 22.551 63.4297 22.2471 63.6937C22.2168 63.7231 22.2168 63.7524 22.2471 63.7817L22.2775 63.8111C23.2501 64.8673 24.101 66.0115 24.8608 67.2143C26.1981 69.3267 27.2315 71.5564 28.3255 73.7862C29.9059 77.219 29.9668 81.0329 29.9364 84.7294C29.754 88.3968 29.2981 92.0641 28.6903 95.6723C28.1736 98.1367 27.7177 100.718 26.3501 102.919L25.7422 101.687C39.9354 101.482 56.104 101.599 70.3275 101.804ZM71.5128 102.831C56.9246 103.036 40.3305 103.154 25.7422 103.066L25.1344 101.834C26.0462 100.367 26.4717 98.6648 26.9579 97.0219C27.7481 94.1177 28.2648 91.1544 28.6295 88.1619L28.8422 86.3723C29.3893 82.1768 27.9913 78.0988 27.0491 74.0502C26.3197 70.5296 24.4657 67.2437 22.0344 64.5445L21.7305 64.2218L21.7001 64.1924L21.6697 64.1631C21.5177 63.9871 21.4266 63.7817 21.4266 63.547C21.457 63.1363 21.8521 62.8136 22.1559 62.5789C22.7638 62.0801 23.554 61.9921 24.1619 62.5789C25.2255 63.459 26.0766 64.4859 26.8971 65.542C29.1462 68.4759 30.9697 71.7325 32.7932 74.9304L32.3981 74.6369C37.3824 75.6636 42.4579 76.3975 47.5638 76.72C52.6089 76.9549 57.8971 76.9549 62.6383 75.0771L62.5168 75.2821C62.3952 74.3436 62.2432 73.4047 62.0304 72.4659C61.605 70.6176 60.9668 68.7986 60.1157 67.0677C59.9638 66.7449 59.5991 66.1288 59.4168 65.8061C59.1736 65.3954 58.8697 65.014 58.5657 64.6619C58.3834 64.4565 58.505 64.1631 58.6873 64.0457C59.2952 63.7524 59.9942 64.1045 60.5717 64.3098C60.6932 64.3685 60.9059 64.4565 61.0275 64.5445C62.1217 65.542 62.7295 66.9503 63.3373 68.2412C63.7628 69.18 64.0971 70.1482 64.3706 71.1163C64.6746 72.0845 64.8873 73.082 65.0697 74.0795L64.6138 73.8741C64.7657 73.7862 64.9481 73.8155 65.0393 73.9621C67.1364 79.6541 68.5952 85.5801 69.7804 91.5067C70.2668 93.8828 70.6619 96.2596 71.057 98.6357C71.3913 100.014 71.4824 101.482 71.5128 102.831Z" fill="black"/>
<path d="M34.4041 81.7077C35.2097 81.7077 35.8628 81.0771 35.8628 80.299C35.8628 79.5217 35.2097 78.891 34.4041 78.891C33.5984 78.891 32.9452 79.5217 32.9452 80.299C32.9452 81.0771 33.5984 81.7077 34.4041 81.7077Z" fill="black"/>
<path d="M62.5168 80.0349C63.2217 80.0349 63.7932 79.4836 63.7932 78.8028C63.7932 78.1227 63.2217 77.5706 62.5168 77.5706C61.8118 77.5706 61.2403 78.1227 61.2403 78.8028C61.2403 79.4836 61.8118 80.0349 62.5168 80.0349Z" fill="black"/>
<path d="M55.6174 72.0552C54.9792 75.0771 50.8458 76.8958 43.886 74.1675C36.6527 71.351 33.5223 64.6325 32.7321 62.6375C37.0174 54.8922 34.039 49.5233 34.039 49.5233C43.9165 48.7018 52.5478 59.8504 52.5478 59.8504L53.885 65.366C54.0066 65.8354 54.2498 66.2461 54.6145 66.5396C55.2527 67.625 56.0125 70.1188 55.6174 72.0552Z" fill="white"/>
<path d="M32.5803 62.7255C33.1577 61.8748 33.5224 60.8773 33.7656 59.909C34.2214 57.8847 34.3734 55.8311 34.4038 53.7774V53.0145C34.3126 52.2517 34.0391 51.4596 33.7352 50.7555C33.3401 49.8166 34.7685 49.2299 35.2243 50.1687C35.2852 50.2861 35.2852 50.4914 35.2852 50.6088C35.3763 54.5988 35.5587 59.733 32.945 63.0483C32.7626 63.2243 32.3979 62.9603 32.5803 62.7255Z" fill="black"/>
<path d="M52.8821 59.7917C53.338 60.0558 53.49 60.4078 53.5508 60.7599C53.7331 61.464 53.6723 62.2268 53.8547 62.9603C54.0066 63.6644 54.4626 64.3392 54.5841 65.0726C54.7361 65.8354 55.1919 67.4491 55.3743 68.2412C55.4351 68.4172 55.3135 68.6226 55.1008 68.6519C54.9792 68.6813 54.888 68.6519 54.7968 68.5933C54.4017 68.2705 54.2194 67.9479 53.9763 67.5371C53.5812 66.833 53.3077 66.1875 53.0645 65.3954C52.8517 64.6912 52.9429 63.9285 52.7606 63.195C52.6086 62.4908 52.1831 61.8161 52.0312 61.0826C51.94 60.7306 51.9096 60.3492 52.1831 59.9091C52.3655 59.7331 52.6694 59.6744 52.8821 59.7917Z" fill="black"/>
<path d="M55.0705 67.537C49.2656 67.2436 44.5244 65.4834 39.9048 57.5327C43.795 60.8479 48.3842 62.1094 53.2166 62.6962L53.8548 65.3954C53.9764 65.8648 54.7058 67.2436 55.0705 67.537Z" fill="black"/>
<path d="M54.8275 66.4515C55.8608 68.3292 56.4687 70.6763 55.8304 72.7593C55.3442 74.2262 53.9461 75.312 52.4265 75.7227C48.901 76.6317 44.8285 75.1945 41.698 73.5807C37.8383 71.4977 34.9814 68.0064 33.1578 64.1924C33.0363 63.899 33.4618 63.6643 33.6442 63.9578C34.2824 65.1899 35.0118 66.3928 35.8324 67.4784C36.6529 68.5932 37.5951 69.6201 38.6589 70.5296C41.7589 73.2287 45.9529 74.9012 50.1471 74.9012C54.4627 74.7836 56.104 72.5832 55.101 68.5345C54.9491 67.8891 54.7059 67.2143 54.3716 66.6569C54.1892 66.4222 54.6451 66.1582 54.8275 66.4515Z" fill="black"/>
<path d="M66.5891 31.2161C67.1362 33.6805 65.3127 36.3209 65.3127 42.8927C65.3127 49.6112 64.0362 56.9165 58.7783 61.9921C54.2499 66.3635 49.0529 66.1875 42.944 61.5813C42.0931 60.9358 39.1147 58.7648 38.3548 58.0314C37.4734 57.1805 36.9872 56.5644 36.5617 55.919C36.1969 55.3323 36.2882 51.929 35.7715 51.1368C34.4342 48.9952 34.1607 51.3129 32.4283 49.4352C30.0274 46.9121 27.1401 41.8365 28.5685 32.859C30.8783 18.3072 42.8225 16.6056 51.6666 18.2191C60.5715 19.8621 65.1303 24.7323 66.5891 31.2161Z" fill="white"/>
<path d="M33.948 52.0463C33.2489 50.9315 32.3676 49.934 31.547 48.9071C30.7264 47.8217 30.0578 46.6774 29.5107 45.4452C26.4107 38.1986 26.8666 28.7223 32.3676 22.6199C36.1362 18.4539 42.0931 17.0749 47.5636 17.3684C53.0342 17.691 58.7176 19.0407 62.7598 22.8546C65.0999 25.055 66.5891 27.9889 67.2578 31.0401C67.4705 32.0082 67.3185 33.0644 67.0754 33.9739C66.3764 36.5263 65.7078 38.9614 65.6469 41.6019C65.6774 45.5332 65.5558 49.5526 64.3705 53.3372C63.5195 55.8604 62.5166 58.3834 60.9362 60.5838C59.295 62.8136 56.8333 64.6032 54.0067 65.1313C48.3234 66.2461 43.0048 62.7842 39.2362 59.0289C39.0842 58.8529 39.2969 58.6475 39.4793 58.7648C41.6372 60.3492 43.8558 61.816 46.2567 62.8136C53.1862 65.8941 58.9303 63.0483 61.9695 56.5938C64.5225 51.8996 65.2518 46.8241 65.0391 41.5725C65.0391 40.2523 65.0999 38.9321 65.2823 37.6119C65.4647 35.7049 66.1332 33.7979 66.1029 31.9202C65.5862 28.869 64.1274 25.9352 61.9391 23.6761C56.742 18.3658 46.7734 16.8109 39.7832 19.2167C31.5469 22.0332 29.3283 30.0426 28.8725 37.6998C28.5685 42.2767 29.9666 46.7654 33.5529 49.9047L34.9813 51.3422C35.4676 51.9877 34.4342 52.7505 33.948 52.0463Z" fill="black"/>
<path d="M37.5342 42.7167C37.5342 42.7167 36.5921 38.316 32.1549 38.844C28.3254 39.3135 26.9882 48.1737 35.6803 50.6381" fill="white"/>
<path d="M35.2852 46.7948C34.5861 46.4134 34.0999 45.768 34.0695 44.9758C34.0999 44.389 34.191 43.7143 34.0391 43.1275C33.9479 42.5701 33.3401 42.4234 32.8842 42.4527C32.3979 42.5407 32.094 43.1275 32.0028 43.5969C32.0028 43.6262 31.9725 43.7143 31.9725 43.7436C31.9421 43.8903 31.6989 43.8903 31.6381 43.7436C31.243 42.5994 32.1244 41.3378 33.4009 41.4846C35.194 41.6019 35.4372 43.4209 35.1028 44.7997C34.9205 45.3866 35.1636 45.9146 35.4979 46.4134L35.5587 46.5014C35.7107 46.6774 35.4676 46.9122 35.2852 46.7948Z" fill="black"/>
<path d="M59.5989 39.6069C60.0548 41.6899 60.9058 43.6262 61.9695 45.4452C62.9116 47.6749 60.4803 49.7873 58.3225 49.6992C58.0793 49.6992 58.0489 49.3766 58.2616 49.3178C59.6293 48.9071 60.8754 48.027 61.0881 46.6774C61.1793 46.2667 61.0577 45.9146 60.845 45.5625C59.8421 43.7436 59.2342 41.6605 59.3861 39.6069C59.3861 39.4602 59.5989 39.4602 59.5989 39.6069Z" fill="black"/>
<path d="M37.3824 42.746C36.6834 41.0151 35.1638 39.3721 33.1275 39.4015C32.9451 39.3721 32.6412 39.4308 32.4589 39.4308C31.9422 39.4601 31.5167 39.6361 31.1216 39.9882C29.1765 41.8659 29.5109 45.1811 31.0912 47.2641C31.6383 47.9976 32.3373 48.6431 33.1275 49.1711C33.9177 49.6992 34.7991 50.11 35.7412 50.462C35.954 50.5208 35.8628 50.8434 35.65 50.8141C33.6138 50.4034 31.6687 49.4352 30.3314 47.8216C28.2647 45.4158 27.8393 41.3965 30.301 39.0494C30.848 38.58 31.6078 38.2279 32.3677 38.2279C32.6109 38.2279 32.9755 38.1693 33.2187 38.2279C34.4951 38.2866 35.7109 38.9028 36.501 39.8709C37.2 40.6924 37.5951 41.6898 37.7167 42.6874C37.7167 42.8634 37.4432 42.9221 37.3824 42.746Z" fill="black"/>
<path d="M57.3197 51.1956C58.4441 50.5501 59.4472 51.7237 58.8392 52.7505C58.6873 53.0439 58.505 53.2493 58.2922 53.4839L58.2618 52.7798C59.3863 53.7186 59.1128 55.1269 57.8059 55.7137C57.5932 55.8017 56.5903 56.0951 56.5903 55.743C56.5903 55.655 56.651 55.5963 56.7422 55.5963C57.502 55.567 58.5354 54.8335 58.2314 54.0121C58.1403 53.8067 57.9275 53.572 57.7452 53.4839C57.5324 53.3666 57.4716 53.1319 57.5932 52.9265C57.8363 52.6625 58.4138 52.3691 58.4138 51.8703C58.353 51.4303 57.8971 51.2835 57.4716 51.4303C57.2892 51.5183 57.1677 51.2835 57.3197 51.1956Z" fill="black"/>
<path d="M49.6911 40.5164C49.6911 40.5457 49.6911 40.575 49.6911 40.575L49.6607 41.3966C49.6304 42.1007 49.0225 42.6287 48.2931 42.5994C47.5637 42.5701 47.0166 41.954 47.0774 41.2792L47.1078 40.4577C47.1078 40.311 47.1686 40.135 47.2293 40.0176L49.6607 40.135C49.6607 40.2524 49.6911 40.3697 49.6911 40.5164Z" fill="#7488A3"/>
<path d="M62.3949 41.1619L62.3646 41.9247C62.3342 42.5701 61.7567 43.0689 61.0881 43.0395C60.4195 43.0101 59.9028 42.4527 59.9332 41.8073L59.9636 41.0445C59.9636 40.8978 59.994 40.7511 60.0548 40.6338L62.3342 40.7218C62.3646 40.8685 62.3949 41.0152 62.3949 41.1619Z" fill="#7488A3"/>
<path d="M52.7302 36.497C53.3989 36.585 53.9156 35.9102 53.6724 35.2648C53.5509 34.9127 53.3381 34.59 53.0038 34.3846C51.9705 33.7686 48.1107 33.7099 46.0744 35.1181C44.2509 36.409 49.6911 36.0863 52.7302 36.497Z" fill="#A77453"/>
<path d="M61.1489 36.8197C60.6018 36.8197 60.2675 36.145 60.5411 35.5876C60.693 35.2941 60.9058 35.0301 61.2097 34.8834C62.1518 34.4434 64.6744 34.7074 65.7989 36.2036C66.8018 37.5239 63.6715 36.7904 61.1489 36.8197Z" fill="#A77453"/>
<path d="M51.636 40.5164L46.6213 40.4283C46.0135 40.399 46.0439 39.5189 46.6518 39.5482L51.6664 39.9003C52.092 39.9296 52.0615 40.5164 51.636 40.5164Z" fill="black"/>
<path d="M63.6716 41.0151L59.9637 41.0738C59.3559 41.0738 59.3255 40.223 59.9333 40.1937C59.9637 40.1937 59.9637 40.1937 59.9942 40.1937L63.702 40.5751C63.9755 40.6044 63.9451 40.9858 63.6716 41.0151Z" fill="black"/>
</g>
<path d="M69.0509 26.9517C71.1176 25.2207 74.1569 22.6096 71.0264 18.9717C67.896 15.3337 62.1215 16.7419 62.1215 16.7419C62.1215 16.7419 63.3373 13.3974 59.9637 12.1945C55.8911 10.7569 44.3422 15.099 44.3422 15.099C43.4911 15.0697 42.6706 15.0403 41.9108 15.0403C31.9422 14.835 29.0549 20.908 28.9333 26.3649C28.9333 26.3649 25.5598 27.4505 24.7088 32.6434C24.4353 34.3157 24.1618 36.4573 24.8304 39.0391C26.6235 46.0804 31.4559 50.9799 34.5255 53.4736C35.6804 52.6522 33.6441 51.508 33.796 50.1584C27.201 47.0485 28.6294 39.5086 32.1549 39.0685C34.8598 38.7458 36.2882 40.2714 36.9569 41.5035C37.2304 41.8556 33.5833 22.2282 54.6147 28.6534C58.7784 29.9149 63.0637 31.0297 65.9813 29.0054C66.3157 29.6215 66.5284 30.355 66.5892 31.4405C66.5892 31.4405 71.6647 29.5335 70.9049 27.5385C70.6618 26.8637 69.0509 26.9517 69.0509 26.9517Z" fill="#A77453"/>
<path d="M61.7265 57.4462C62.1824 55.1284 62.3344 52.7814 61.9393 50.4636C61.7873 49.5835 61.2402 48.1166 60.3893 48.762C60.0549 49.0261 58.3226 49.5541 57.9882 49.5835C57.0157 49.6715 56.2863 49.5541 55.5873 49.0261C54.7971 48.4099 54.7971 48.1459 54.6147 48.0872C51.4235 47.0603 47.4118 46.0335 46.1049 50.1702C45.0412 53.5442 42.3667 56.8593 40.3912 53.5735C38.8716 51.0797 38.9628 46.3269 38.75 45.3294C38.2333 42.865 37.504 41.6621 37.0784 42.0141C37.0784 42.8063 37.352 52.1652 37.3824 52.664C37.5951 55.2458 37.9295 56.0672 39.1451 57.7395C40.3608 59.4118 44.6157 63.9592 50.1471 64.3406C55.7089 64.7221 58.7784 64.282 61.8784 60.8494C64.6746 57.7395 64.7657 51.2851 64.7657 51.2851C63.398 55.1871 62.4559 56.478 61.7265 57.4462ZM49.2049 50.845C50.7853 49.1727 53.0951 51.1091 55.5873 51.2851C58.0491 51.4611 59.052 49.9649 59.2344 52.6053C59.2951 53.2507 59.3863 54.3363 59.3559 55.0697C59.3559 55.0991 59.3559 55.1284 59.3559 55.1577C59.2647 55.9793 58.9912 56.8887 58.1402 57.3875C56.3471 58.473 53.4598 58.209 51.6059 57.8569C49.0226 57.3581 48.4755 56.2139 48.354 55.6858C48.1716 53.4268 48.5667 51.5198 49.2049 50.845Z" fill="#A77453"/>
<path d="M87.5905 24.7322C106.039 59.0289 73.6098 97.7259 34.9509 88.2793C17.5971 84.1129 3.64705 69.5907 0.759794 52.5451C-2.52256 35.5874 5.40979 17.3683 20.2412 7.77467C40.5736 -5.72102 68.7471 -1.23224 83.3047 18.0725C83.3962 18.1604 83.366 18.3071 83.2443 18.3952C83.1528 18.4832 83.0009 18.4538 82.9095 18.3365C80.9038 15.8427 78.6245 13.5837 76.1323 11.5593C72.0294 8.1854 67.2274 5.54494 62.152 3.75529C36.3187 -5.28094 7.96272 9.74031 2.30979 35.8222C-4.07256 65.0433 21.6696 91.9466 52.3656 87.9269C76.0412 85.0518 93.6386 63.9577 91.6933 41.015C91.2679 35.4701 89.7481 29.9839 87.2255 24.9377C87.165 24.8496 87.2255 24.7322 87.3169 24.6736C87.4076 24.6149 87.5293 24.6442 87.5905 24.7322Z" fill="black"/>
</g>
<defs>
<clipPath id="clip0_12_1521">
<rect width="93" height="90" fill="white"/>
</clipPath>
</defs>
</svg>
